<?xml version="1.0" encoding="UTF-8"?>
<svg xmlns="http://www.w3.org/2000/svg"
     width="800" height="480" viewBox="0 0 800 480"
     role="img" aria-labelledby="title desc">
  <title id="title">Cartoon retro television</title>
  <desc id="desc">A hand-drawn blue retro television with twin antennas, rounded screen, two tuning knobs, ventilation slots and small feet on a transparent background.</desc>

  <defs>
    <clipPath id="topDialClip">
      <circle cx="534" cy="202" r="19"/>
    </clipPath>
    <clipPath id="bottomDialClip">
      <circle cx="534" cy="260" r="19"/>
    </clipPath>
  </defs>

  <!-- Antennas, behind the cabinet -->
  <g id="antennas" stroke-linecap="round" stroke-linejoin="round">
    <path d="M332 85 L378 130" fill="none" stroke="#061014" stroke-width="7"/>
    <path d="M332 85 L378 130" fill="none" stroke="#dce8e9" stroke-width="3.5"/>
    <path d="M434 76 L397 130" fill="none" stroke="#061014" stroke-width="7"/>
    <path d="M434 76 L397 130" fill="none" stroke="#dce8e9" stroke-width="3.5"/>

    <circle cx="331.5" cy="84.7" r="7.1" fill="#061014"/>
    <circle cx="331.5" cy="84.7" r="4.8" fill="#e4edef"/>
    <circle cx="330.2" cy="83.2" r="1.4" fill="#ffffff" opacity="0.8"/>

    <circle cx="434.1" cy="75.7" r="7.2" fill="#061014"/>
    <circle cx="434.1" cy="75.7" r="4.9" fill="#e4edef"/>
    <circle cx="432.7" cy="74.1" r="1.4" fill="#ffffff" opacity="0.8"/>

    <path d="M363.5 143 C368 126 378 123.8 387.4 124.1 C398 124.3 406.4 130.5 411.5 143 Z"
          fill="#dce9ea" stroke="#061014" stroke-width="3"/>
    <path d="M370 138 C374 129.5 382 126.8 388 127.2"
          fill="none" stroke="#f8fbfb" stroke-width="3" opacity="0.85"/>
  </g>

  <!-- Small feet, tucked under the cabinet -->
  <g id="feet" stroke="#061014" stroke-width="2.7" stroke-linejoin="round">
    <path d="M272.5 383.5 L309 387.5 L298.1 408.6 C290.3 410.6 280.6 408.3 274.7 405.5 Z"
          fill="#009dd7"/>
    <path d="M486.5 388.5 L527 384.3 L522.2 405.7 C514.8 409 505 410 497.4 408.2 Z"
          fill="#009fd9"/>
    <path d="M277 392 L301 394 L296 404 C289 405 282 404 277.8 402.5 Z"
          fill="#08afe5" stroke="none" opacity="0.72"/>
    <path d="M493 395 L522.7 391.4 L520.2 402.5 C512 405 504.7 405.8 499.3 404.4 Z"
          fill="#08afe5" stroke="none" opacity="0.72"/>
  </g>

  <!-- Main cabinet -->
  <path id="cabinet"
        d="M279 150.7
           C337 143.1 444 138.6 524.5 148.6
           C546.7 151.4 557.7 164.1 562.5 184.8
           C571.4 225.3 571.3 311.5 563.2 350.6
           C558.7 372.2 543 383.4 521.8 387.2
           C449.4 396.6 338.3 393.1 269.3 387.7
           C249.3 386 239.2 374.8 234.8 354.5
           C224.9 307 225.5 226.7 233.8 186.5
           C238 165.7 252.6 154.2 279 150.7 Z"
        fill="#00a0dc" stroke="#061014" stroke-width="3.2" stroke-linejoin="round"/>

  <!-- Hand-painted highlight along the upper-left cabinet edge -->
  <path d="M238.8 222 C240.1 190.5 243.4 169 262.8 158.7 C273 153.2 283 152.1 299 150.4 C331 146.8 359 145.4 388 144.8"
        fill="none" stroke="#7bd7f5" stroke-width="5.8" stroke-linecap="round" opacity="0.92"/>

  <!-- Pale screen bezel -->
  <path id="bezel"
        d="M278.2 165.7
           C329.7 158.2 428.7 157.4 469.3 165.6
           C486.8 169.1 494.4 178.3 497.8 197.1
           C504.8 235.7 504 306.8 495 339.5
           C491.4 352.3 484.1 357.3 468 360.2
           C414.8 368.2 327 367.4 275 359.2
           C259.8 356.8 253.8 349 251 333.4
           C244.1 292.9 245.3 224.1 251.9 188.4
           C254.5 174.7 262.2 168 278.2 165.7 Z"
        fill="#dce9ea" stroke="#061014" stroke-width="3.2" stroke-linejoin="round"/>

  <!-- Rounded blue glass -->
  <path id="screen"
        d="M309.8 186.2
           C352 178.7 420.5 178.7 455.5 186.4
           C471.1 189.8 477.9 199.5 481.5 216.9
           C488.1 248.2 487.4 297.9 476.1 322.2
           C471 333.3 461.8 338.6 446 341.8
           C406.4 349.7 345.4 349.4 307.2 343.2
           C290.4 340.5 281.1 333.6 276.8 319.6
           C267.1 287.9 267.9 238.1 276.2 211.4
           C280.9 196.8 291.3 189.5 309.8 186.2 Z"
        fill="#67c3e4" stroke="#061014" stroke-width="3.3" stroke-linejoin="round"/>

  <!-- Slight darker roll-off at the bottom of the curved glass -->
  <path d="M277.8 315.8
           C284.5 330.1 294 337.6 309.2 341.1
           C346.8 349.8 408 349.2 446.2 341.5
           C461.4 338.4 470 331.6 475.9 321.1
           C471.3 333.8 461.8 339.1 446 342.3
           C406.5 350 345.5 349.5 307.3 343.3
           C290.6 340.6 281.5 333.8 277.8 319.8 Z"
        fill="#54accd" opacity="0.48"/>

  <!-- Glass reflections -->
  <path d="M284.7 245.5 C286.5 225 294.7 209.2 311.1 202.2 C317.8 199.4 325.8 196.7 328.1 198.4 C330.3 200.3 326 203.1 322.2 204.6 C302.1 212.7 291.1 226.2 286.9 245.8 C286.3 248.8 284.4 249.1 284.7 245.5 Z"
        fill="#c8eef7" opacity="0.74"/>
  <ellipse cx="342.7" cy="196.7" rx="5.7" ry="2.7" fill="#d5f2f8" opacity="0.78" transform="rotate(-10 342.7 196.7)"/>
  <ellipse cx="284.2" cy="256.7" rx="2.7" ry="6.5" fill="#d5f2f8" opacity="0.82" transform="rotate(8 284.2 256.7)"/>

  <!-- Four hand-drawn bezel corner seams -->
  <g fill="none" stroke="#061014" stroke-width="3.1" stroke-linecap="round">
    <path d="M268.1 179.5 L282.2 195.5"/>
    <path d="M483.6 179.2 L469.4 193.6"/>
    <path d="M268.1 347.8 L282.1 332.1"/>
    <path d="M484.5 347.3 L468.9 331.1"/>
  </g>

  <!-- Tuning dials -->
  <g id="dials" stroke-linecap="round" stroke-linejoin="round">
    <circle cx="531.8" cy="204.2" r="21.2" fill="#0089bc" opacity="0.75"/>
    <circle cx="534" cy="202" r="21.1" fill="#e6eded" stroke="#061014" stroke-width="3.3"/>
    <path d="M519.7 188.2 C512.9 197 514.8 210.9 523.4 217.7"
          fill="none" stroke="#8ca5aa" stroke-width="2.4"/>
    <g clip-path="url(#topDialClip)" fill="none" stroke="#061014" stroke-width="3.4">
      <path d="M538.5 180.6 L517.1 216.4"/>
      <path d="M548.3 187.2 L528.2 222.6"/>
    </g>
    <path d="M520.2 190 C516.6 194.2 515.1 199.6 515.7 204.4"
          fill="none" stroke="#ffffff" stroke-width="2.2" opacity="0.9"/>

    <circle cx="531.7" cy="262.5" r="21.4" fill="#0089bc" opacity="0.75"/>
    <circle cx="534" cy="260" r="21.1" fill="#e6eded" stroke="#061014" stroke-width="3.3"/>
    <path d="M519.6 246.2 C512.8 255.1 514.9 269.2 523.8 275.8"
          fill="none" stroke="#8ca5aa" stroke-width="2.4"/>
    <g clip-path="url(#bottomDialClip)" fill="none" stroke="#061014" stroke-width="3.4">
      <path d="M538.7 238.5 L517.3 274.5"/>
      <path d="M548.5 245.4 L528.6 280.8"/>
    </g>
    <path d="M520.3 248 C516.7 252.2 515.3 257.7 515.9 262.5"
          fill="none" stroke="#ffffff" stroke-width="2.2" opacity="0.9"/>
  </g>

  <!-- Ventilation slots -->
  <g id="vents" fill="none" stroke="#061014" stroke-width="3.2" stroke-linecap="round">
    <path d="M509.8 296.8 L557.5 296.8"/>
    <path d="M509.4 304.9 L557.6 304.9"/>
    <path d="M509.2 313 L557.7 313"/>
    <path d="M509.2 321.1 L557.6 321.1"/>
    <path d="M509.5 329.2 L557.2 329.2"/>
    <path d="M510 337.3 L556.8 337.3"/>
  </g>

  <!-- Lower front slot -->
  <path d="M344.2 372.2 C368.1 370.5 405.3 370.6 428.4 372.7 C435.3 373.4 435.2 381.4 428.2 382.1 C403.4 384.6 368.1 384.3 343.6 382.5 C336.6 382 337.1 373 344.2 372.2 Z"
        fill="#dce9ea" stroke="#061014" stroke-width="3" stroke-linejoin="round"/>
</svg>
